<?xml version="1.0" encoding="UTF-8"?>
<svg viewBox="0 0 74 74" version="1.1" xmlns="http://www.w3.org/2000/svg" xmlns:xlink="http://www.w3.org/1999/xlink">
    <g>
        <polygon fill="#A4D233" points="0 59.0116 36.652 73.3066 73.306 59.0116 73.306 49.5796 36.652 63.8736 0 49.5796"></polygon>
        <polygon fill="#529736" points="0 49.5796 36.653 63.8736 73.306 49.5796 73.306 49.5796 36.653 35.2846"></polygon>
        <polygon fill="#FF8200" points="0 41.3698 36.652 55.6648 73.306 41.3698 73.306 31.9368 36.652 46.2308 0 31.9368"></polygon>
        <polygon fill="#E35205" points="0 31.9369 36.653 46.2309 73.306 31.9369 73.306 31.9369 36.653 17.6419"></polygon>
        <polygon fill="#009CDE" points="0 23.7271 36.652 38.0221 73.306 23.7271 73.306 14.2941 36.652 28.5891 0 14.2941"></polygon>
        <polygon fill="#007DB9" points="36.6534 0.0004 0.0004 14.2944 36.6534 28.5894 73.3064 14.2944 73.3064 14.2934"></polygon>
    </g>
</svg>