<svg xmlns="http://www.w3.org/2000/svg" xmlns:xlink="http://www.w3.org/1999/xlink" width="26.599999999999998" height="43.4" viewBox="0 0 32 52">
    <g transform="matrix(0.03057603,0,0,0.03070631,-6.3065742,-4.4882472)">
        <path stroke-miterlimit="10" d="M 730.94,1839.63 C 692.17401,1649.33 623.82397,1490.96 541.03699,1344.1899 479.63001,1235.3199 408.49301,1134.83 342.673,1029.25 320.70099,994.00702 301.73901,956.77399 280.62601,920.19702 238.41,847.06 204.18201,762.26202 206.357,652.26501 208.482,544.79199 239.565,458.58099 284.38699,388.09299 358.10599,272.15799 481.58801,177.104 647.271,152.12399 782.737,131.7 909.74597,166.20599 999.81403,218.87199 1073.41,261.91 1130.41,319.39899 1173.73,387.15201 c 45.22,70.716 76.36,154.25998 78.97,263.23196 1.34,55.83002 -7.8,107.53204 -20.68,150.41803 -13.03,43.409 -33.99,79.69501 -52.64,118.45398 -36.41,75.659 -82.05,144.98402 -127.86,214.34402 -136.43699,206.61 -264.49601,417.31 -320.58,706.03 z" style="clip-rule:evenodd;fill:{color};fill-rule:evenodd;stroke-width:37;stroke-miterlimit:10" />
        <circle cx="725.54596" cy="661.047" r="337.33295" style="clip-rule:evenodd;fill:#2a9cc3;fill-rule:evenodd" />
    </g>
</svg>
