<svg width="12" height="12" viewBox="0 0 12 12" fill="none" xmlns="http://www.w3.org/2000/svg">
<g clip-path="url(#clip0)">
<path d="M10 7C9.73478 7 9.48043 7.10536 9.29289 7.29289C9.10536 7.48043 9 7.73478 9 8V10H2V3H3C3.26522 3 3.51957 2.89464 3.70711 2.70711C3.89464 2.51957 4 2.26522 4 2C4 1.73478 3.89464 1.48043 3.70711 1.29289C3.51957 1.10536 3.26522 1 3 1H2C1.46957 1 0.960859 1.21071 0.585786 1.58579C0.210714 1.96086 0 2.46957 0 3L0 10C0 10.5304 0.210714 11.0391 0.585786 11.4142C0.960859 11.7893 1.46957 12 2 12H9C9.53043 12 10.0391 11.7893 10.4142 11.4142C10.7893 11.0391 11 10.5304 11 10V8C11 7.73478 10.8946 7.48043 10.7071 7.29289C10.5196 7.10536 10.2652 7 10 7Z" fill="black"/>
<path d="M8.82 0.116057C8.747 0.0552525 8.65818 0.016505 8.56396 0.004352C8.46973 -0.00780102 8.37399 0.00714345 8.28795 0.0474354C8.20191 0.0877274 8.12913 0.151699 8.07814 0.231859C8.02714 0.312019 8.00004 0.40505 8 0.500057V2.00006C6.93913 2.00006 5.92172 2.42148 5.17157 3.17163C4.42143 3.92178 4 4.93919 4 6.00006C4 6.26527 4.10536 6.51963 4.29289 6.70716C4.48043 6.8947 4.73478 7.00006 5 7.00006C5.26522 7.00006 5.51957 6.8947 5.70711 6.70716C5.89464 6.51963 6 6.26527 6 6.00006C6 5.46962 6.21071 4.96092 6.58579 4.58584C6.96086 4.21077 7.46957 4.00006 8 4.00006V5.50006C7.99997 5.59513 8.02704 5.68825 8.07805 5.76848C8.12906 5.84872 8.20189 5.91274 8.288 5.95306C8.35444 5.98385 8.42677 5.99989 8.5 6.00006C8.61695 6 8.73018 5.95896 8.82 5.88406L11.82 3.38406C11.8763 3.33713 11.9215 3.27841 11.9526 3.21206C11.9837 3.1457 11.9998 3.07333 11.9998 3.00006C11.9998 2.92679 11.9837 2.85441 11.9526 2.78806C11.9215 2.7217 11.8763 2.66298 11.82 2.61606L8.82 0.116057Z" fill="black"/>
</g>
<defs>
<clipPath id="clip0">
<rect width="12" height="12" fill="white"/>
</clipPath>
</defs>
</svg>
