<svg width="173" height="114" viewBox="0 0 173 114" fill="none" xmlns="http://www.w3.org/2000/svg">
    <g opacity="0.5">
        <path d="M138.365 101.011L172.427 113.161H172.483V104.062L172.427 104.089L138.365 91.8853V101.011Z" fill="#2B2D2E" fill-opacity="0.5" />
        <path d="M138.365 83.5494L172.427 95.7263L172.483 95.6991V86.6277H172.427L138.365 74.4508V83.5494Z" fill="#2B2D2E" fill-opacity="0.5" />
        <path d="M138.365 66.0877L172.427 78.2646L172.483 78.2373V69.1659L172.427 69.1932L138.365 56.989V66.0877Z" fill="#2B2D2E" fill-opacity="0.5" />
        <path d="M138.365 48.6531L172.427 60.8028H172.483V51.7042L172.427 51.7314L138.365 39.5273V48.6531Z" fill="#2B2D2E" fill-opacity="0.5" />
        <path d="M138.365 31.1914L172.427 43.3683L172.483 43.3411V34.2697H172.427L138.365 22.0928V31.1914Z" fill="#2B2D2E" fill-opacity="0.5" />
        <path d="M138.365 13.7297L172.427 25.9066H172.483V16.8079L172.427 16.8352L138.365 4.63104V13.7297Z" fill="#2B2D2E" fill-opacity="0.5" />
        <path d="M149.246 0L172.427 8.28139L172.483 8.25415V0H149.246Z" fill="#2B2D2E" fill-opacity="0.5" />
        <path d="M103.245 77.7742L69.1825 65.5701V74.6687L103.245 86.8456L138.365 74.6687V65.5701L103.245 77.7742Z" fill="#2B2D2E" fill-opacity="0.5" />
        <path d="M103.245 60.3125L69.1825 48.1356V57.2342L103.245 69.4111L138.365 57.2342V48.1356L103.245 60.3125Z" fill="#2B2D2E" fill-opacity="0.5" />
        <path d="M103.245 42.8507L69.1825 30.6738V39.7725L103.245 51.9494L138.365 39.7725V30.6738L103.245 42.8507Z" fill="#2B2D2E" fill-opacity="0.5" />
        <path d="M103.245 25.4162L69.1825 13.2121V22.3107L103.245 34.4876L138.365 22.3107V13.2121L103.245 25.4162Z" fill="#2B2D2E" fill-opacity="0.5" />
        <path d="M126.176 0L103.245 7.95449L81.0097 0H69.1825V4.87621L103.245 17.0531L138.365 4.87621V0H126.176Z" fill="#2B2D2E" fill-opacity="0.5" />
        <path d="M34.0625 35.0324L0 22.8555V31.9542L34.0625 44.1311L69.1825 31.9542V22.8555L34.0625 35.0324Z"  fill="#2B2D2E" fill-opacity="0.5" />
        <path d="M34.0625 17.5979L0 5.3938V14.4924L34.0625 26.6693L69.1825 14.4924V5.3938L34.0625 17.5979Z" fill="#2B2D2E" fill-opacity="0.5" />
        <path d="M34.4799 0L34.0625 0.136207L33.6729 0H8.26518L34.0625 9.23484L60.6669 0H34.4799Z" fill="#2B2D2E" fill-opacity="0.5" />
    </g>
</svg>
