<svg width="915" height="614" viewBox="0 0 915 614" fill="none" xmlns="http://www.w3.org/2000/svg">
<path d="M734.65 547.884L915.505 613.784H915.8V564.433L915.505 564.581L734.65 498.385V547.884Z" fill="#F8FAFC"/>
<path d="M734.65 453.172L915.505 519.219L915.8 519.072V469.868H915.505L734.65 403.821V453.172Z" fill="#F8FAFC"/>
<path d="M734.65 358.459L915.505 424.507L915.8 424.359V375.156L915.505 375.304L734.65 309.108V358.459Z" fill="#F8FAFC"/>
<path d="M734.65 263.895L915.505 329.794H915.8V280.443L915.505 280.591L734.65 214.396V263.895Z" fill="#F8FAFC"/>
<path d="M734.65 169.182L915.505 235.23L915.8 235.082V185.879H915.505L734.65 119.831V169.182Z" fill="#F8FAFC"/>
<path d="M734.65 74.4697L915.505 140.517H915.8V91.1663L915.505 91.314L734.65 25.1187V74.4697Z" fill="#F8FAFC"/>
<path d="M792.423 0L915.504 44.9182L915.8 44.7705V0H792.423Z" fill="#F8FAFC"/>
<path d="M548.18 421.847L367.325 355.652V405.003L548.18 471.05L734.65 405.003V355.652L548.18 421.847Z" fill="#F8FAFC"/>
<path d="M548.18 327.135L367.325 261.087V310.438L548.18 376.486L734.65 310.438V261.087L548.18 327.135Z" fill="#F8FAFC"/>
<path d="M548.18 232.422L367.325 166.375V215.726L548.18 281.773L734.65 215.726V166.375L548.18 232.422Z" fill="#F8FAFC"/>
<path d="M548.18 137.858L367.325 71.6623V121.013L548.18 187.061L734.65 121.013V71.6623L548.18 137.858Z" fill="#F8FAFC"/>
<path d="M669.932 0L548.18 43.1451L430.122 0H367.325V26.4486L548.18 92.4961L734.65 26.4486V0H669.932Z" fill="#F8FAFC"/>
<path d="M180.855 190.016L0 123.968V173.319L180.855 239.367L367.325 173.319V123.968L180.855 190.016Z" fill="#F8FAFC"/>
<path d="M180.855 95.4512L0 29.2559V78.6069L180.855 144.654L367.325 78.6069V29.2559L180.855 95.4512Z" fill="#F8FAFC"/>
<path d="M183.071 0L180.855 0.738787L178.786 0H43.884L180.855 50.0897L322.111 0H183.071Z" fill="#F8FAFC"/>
</svg>
