<svg width="16" height="16" viewBox="0 0 16 16" fill="none" xmlns="http://www.w3.org/2000/svg">
<path opacity="0.5" d="M8 16C6.41775 16 4.87103 15.5308 3.55544 14.6518C2.23985 13.7727 1.21447 12.5233 0.608967 11.0615C0.0034663 9.59966 -0.15496 7.99113 0.153721 6.43928C0.462403 4.88743 1.22433 3.46197 2.34315 2.34315C3.46197 1.22433 4.88743 0.462403 6.43928 0.153721C7.99113 -0.15496 9.59966 0.0034663 11.0615 0.608967C12.5233 1.21447 13.7727 2.23985 14.6518 3.55544C15.5308 4.87103 16 6.41775 16 8C15.9976 10.121 15.154 12.1544 13.6542 13.6542C12.1544 15.154 10.121 15.9976 8 16Z" fill="#FA374F"/>
<path d="M11.0909 9.45452C11.6934 9.45452 12.1818 8.96611 12.1818 8.36361C12.1818 7.76112 11.6934 7.27271 11.0909 7.27271C10.4884 7.27271 10 7.76112 10 8.36361C10 8.96611 10.4884 9.45452 11.0909 9.45452Z" fill="black"/>
<path d="M5.09091 9.45452C5.6934 9.45452 6.18182 8.96611 6.18182 8.36361C6.18182 7.76112 5.6934 7.27271 5.09091 7.27271C4.48842 7.27271 4 7.76112 4 8.36361C4 8.96611 4.48842 9.45452 5.09091 9.45452Z" fill="black"/>
<path d="M5.56088 12.7273C5.49067 12.7273 5.42196 12.7069 5.36306 12.6687C5.30415 12.6305 5.25756 12.5761 5.22891 12.512C5.20027 12.4479 5.19079 12.3769 5.20162 12.3075C5.21246 12.2381 5.24314 12.1734 5.28997 12.1211C5.63105 11.7398 6.04874 11.4348 6.51575 11.2259C6.98276 11.0171 7.48858 10.9092 8.00015 10.9092C8.51173 10.9092 9.01754 11.0171 9.48455 11.2259C9.95156 11.4348 10.3693 11.7398 10.7103 12.1211C10.7427 12.1566 10.7677 12.1981 10.7839 12.2433C10.8002 12.2885 10.8073 12.3365 10.8048 12.3845C10.8024 12.4325 10.7905 12.4795 10.7698 12.5228C10.7491 12.5662 10.72 12.605 10.6842 12.6371C10.6484 12.6691 10.6067 12.6937 10.5613 12.7095C10.5159 12.7253 10.4679 12.732 10.4199 12.7291C10.372 12.7262 10.3251 12.7139 10.2819 12.6928C10.2388 12.6717 10.2002 12.6422 10.1685 12.6062C9.89565 12.3011 9.56147 12.057 9.18782 11.8899C8.81417 11.7228 8.40947 11.6364 8.00015 11.6364C7.59084 11.6364 7.18613 11.7228 6.81248 11.8899C6.43884 12.057 6.10466 12.3011 5.83179 12.6062C5.79769 12.6443 5.75593 12.6747 5.70925 12.6956C5.66257 12.7165 5.61201 12.7273 5.56088 12.7273Z" fill="black"/>
<path d="M10.1822 5.90904C10.1027 5.90909 10.0254 5.88308 9.96206 5.83499C9.89874 5.7869 9.85292 5.71937 9.83163 5.64276C9.81035 5.56614 9.81476 5.48466 9.84419 5.41079C9.87363 5.33693 9.92646 5.27474 9.99461 5.23377L11.8128 4.14286C11.8954 4.09525 11.9933 4.08196 12.0856 4.10584C12.1778 4.12973 12.257 4.18888 12.3061 4.27057C12.3552 4.35226 12.3703 4.44996 12.3481 4.54264C12.3258 4.63532 12.2681 4.71557 12.1873 4.76613L10.3692 5.85704C10.3128 5.89108 10.2481 5.90906 10.1822 5.90904Z" fill="black"/>
<path d="M5.81841 5.90904C5.75253 5.90906 5.6879 5.89108 5.6315 5.85704L3.81332 4.76613C3.73252 4.71557 3.67481 4.63532 3.6526 4.54264C3.63038 4.44996 3.64544 4.35226 3.69453 4.27057C3.74362 4.18888 3.82282 4.12973 3.91508 4.10584C4.00734 4.08196 4.1053 4.09525 4.18786 4.14286L6.00604 5.23377C6.07419 5.27474 6.12702 5.33693 6.15646 5.41079C6.18589 5.48466 6.1903 5.56614 6.16902 5.64276C6.14773 5.71937 6.10191 5.7869 6.03859 5.83499C5.97527 5.88308 5.89792 5.90909 5.81841 5.90904Z" fill="black"/>
</svg>
