<svg width="16" height="16" viewBox="0 0 16 16" fill="none" xmlns="http://www.w3.org/2000/svg">
<path opacity="0.5" d="M8 16C6.41775 16 4.87103 15.5308 3.55544 14.6518C2.23985 13.7727 1.21447 12.5233 0.608967 11.0615C0.0034663 9.59966 -0.15496 7.99113 0.153721 6.43928C0.462403 4.88743 1.22433 3.46197 2.34315 2.34315C3.46197 1.22433 4.88743 0.462403 6.43928 0.153721C7.99113 -0.15496 9.59966 0.0034663 11.0615 0.608967C12.5233 1.21447 13.7727 2.23985 14.6518 3.55544C15.5308 4.87103 16 6.41775 16 8C15.9976 10.121 15.154 12.1544 13.6542 13.6542C12.1544 15.154 10.121 15.9976 8 16Z" fill="#FFD132"/>
<path d="M5.09091 8.36364C4.87515 8.36364 4.66423 8.29966 4.48483 8.17979C4.30543 8.05992 4.16561 7.88954 4.08304 7.69021C4.00047 7.49087 3.97887 7.27152 4.02096 7.05991C4.06305 6.84829 4.16695 6.65391 4.31952 6.50134C4.47209 6.34878 4.66647 6.24488 4.87808 6.20279C5.0897 6.16069 5.30904 6.1823 5.50838 6.26486C5.70772 6.34743 5.8781 6.48726 5.99797 6.66666C6.11784 6.84606 6.18182 7.05697 6.18182 7.27273C6.18182 7.56206 6.06688 7.83954 5.8623 8.04412C5.65771 8.24871 5.38024 8.36364 5.09091 8.36364Z" fill="black"/>
<path d="M11.0909 8.36364C10.8751 8.36364 10.6642 8.29966 10.4848 8.17979C10.3054 8.05992 10.1656 7.88954 10.083 7.69021C10.0005 7.49087 9.97887 7.27152 10.021 7.05991C10.0631 6.84829 10.167 6.65391 10.3195 6.50134C10.4721 6.34878 10.6665 6.24488 10.8781 6.20279C11.0897 6.16069 11.309 6.1823 11.5084 6.26486C11.7077 6.34743 11.8781 6.48726 11.998 6.66666C12.1178 6.84606 12.1818 7.05697 12.1818 7.27273C12.1818 7.56206 12.0669 7.83954 11.8623 8.04412C11.6577 8.24871 11.3802 8.36364 11.0909 8.36364Z" fill="black"/>
<path d="M9.66939 11.7273H6.32848C6.26519 11.7273 6.20449 11.689 6.15974 11.6208C6.11499 11.5526 6.08984 11.4601 6.08984 11.3636C6.08984 11.2672 6.11499 11.1747 6.15974 11.1065C6.20449 11.0383 6.26519 11 6.32848 11H9.66939C9.73268 11 9.79338 11.0383 9.83813 11.1065C9.88288 11.1747 9.90802 11.2672 9.90802 11.3636C9.90802 11.4601 9.88288 11.5526 9.83813 11.6208C9.79338 11.689 9.73268 11.7273 9.66939 11.7273Z" fill="black"/>
</svg>
