<svg width="16" height="16" viewBox="0 0 16 16" fill="none" xmlns="http://www.w3.org/2000/svg">
<path opacity="0.5" d="M8 16C6.41775 16 4.87103 15.5308 3.55544 14.6518C2.23985 13.7727 1.21447 12.5233 0.608967 11.0615C0.00346631 9.59966 -0.15496 7.99113 0.153721 6.43928C0.462403 4.88743 1.22433 3.46197 2.34315 2.34315C3.46197 1.22433 4.88743 0.462403 6.43928 0.153721C7.99113 -0.15496 9.59966 0.00346631 11.0615 0.608967C12.5233 1.21447 13.7727 2.23985 14.6518 3.55544C15.5308 4.87103 16 6.41775 16 8C15.9976 10.121 15.154 12.1544 13.6542 13.6542C12.1544 15.154 10.121 15.9976 8 16Z" fill="#00BA83"/>
<path fill-rule="evenodd" clip-rule="evenodd" d="M3.50058 8.51243C3.76985 8.45121 4.03777 8.61986 4.09899 8.88913C4.30003 9.7733 4.79551 10.5629 5.50419 11.1286C6.21287 11.6942 7.0927 12.0023 7.99944 12.0023C8.90617 12.0023 9.786 11.6942 10.4947 11.1286C11.2034 10.5629 11.6988 9.7733 11.8999 8.88913C11.9611 8.61986 12.229 8.45121 12.4983 8.51243C12.7676 8.57366 12.9362 8.84158 12.875 9.11085C12.6237 10.2161 12.0043 11.2031 11.1185 11.9101C10.2326 12.6172 9.13286 13.0023 7.99944 13.0023C6.86602 13.0023 5.76623 12.6172 4.88038 11.9101C3.99453 11.2031 3.37518 10.2161 3.12388 9.11085C3.06266 8.84158 3.23131 8.57366 3.50058 8.51243Z" fill="black"/>
<path d="M5.09091 7.18182C4.87515 7.18182 4.66423 7.11784 4.48483 6.99797C4.30543 6.8781 4.16561 6.70772 4.08304 6.50838C4.00047 6.30904 3.97887 6.0897 4.02096 5.87808C4.06305 5.66647 4.16695 5.47209 4.31952 5.31952C4.47209 5.16695 4.66647 5.06305 4.87808 5.02096C5.0897 4.97887 5.30904 5.00047 5.50838 5.08304C5.70772 5.16561 5.8781 5.30543 5.99797 5.48483C6.11784 5.66423 6.18182 5.87515 6.18182 6.09091C6.18182 6.38024 6.06688 6.65771 5.8623 6.8623C5.65771 7.06688 5.38024 7.18182 5.09091 7.18182Z" fill="black"/>
<path d="M11.0909 7.18182C10.8751 7.18182 10.6642 7.11784 10.4848 6.99797C10.3054 6.8781 10.1656 6.70772 10.083 6.50838C10.0005 6.30904 9.97887 6.0897 10.021 5.87808C10.0631 5.66647 10.167 5.47209 10.3195 5.31952C10.4721 5.16695 10.6665 5.06305 10.8781 5.02096C11.0897 4.97887 11.309 5.00047 11.5084 5.08304C11.7077 5.16561 11.8781 5.30543 11.998 5.48483C12.1178 5.66423 12.1818 5.87515 12.1818 6.09091C12.1818 6.38024 12.0669 6.65771 11.8623 6.8623C11.6577 7.06688 11.3802 7.18182 11.0909 7.18182Z" fill="black"/>
</svg>
