<svg width="316" height="574" viewBox="0 0 316 574" fill="none" xmlns="http://www.w3.org/2000/svg">
<rect width="316" height="38" fill="#E5EAED"/>
<rect x="1" y="39" width="314" height="534" stroke="#E5EAED" stroke-width="2"/>
<rect x="17" y="58" width="202" height="38" rx="7" fill="#E5EAED"/>
<path d="M10 88.8586L16.8587 81.9999L23.7175 88.8586H16.8587H10Z" fill="#E5EAED"/>
<rect x="97" y="106" width="202" height="59" rx="7" fill="#E5EAED"/>
<path d="M292 156.859L298.859 150L305.717 156.859H298.859H292Z" fill="#E5EAED"/>
<rect x="97" y="264" width="202" height="59" rx="7" fill="#E5EAED"/>
<path d="M292 315.859L298.859 309L305.717 315.859H298.859H292Z" fill="#E5EAED"/>
<rect x="17" y="175" width="202" height="79" rx="7" fill="#E5EAED"/>
<path d="M10 246.859L16.8587 240L23.7175 246.859H16.8587H10Z" fill="#E5EAED"/>
<rect x="36" y="74" width="97" height="5" fill="#F7F8F9"/>
<rect x="118" y="281" width="157" height="5" fill="#F7F8F9"/>
<rect x="118" y="301" width="117" height="5" fill="#F7F8F9"/>
<rect x="113" y="123" width="167" height="5" fill="#F7F8F9"/>
<rect x="113" y="143" width="127" height="5" fill="#F7F8F9"/>
<rect x="31" y="193" width="167" height="5" fill="#F7F8F9"/>
<rect x="31" y="233" width="167" height="5" fill="#F7F8F9"/>
<rect x="31" y="213" width="127" height="5" fill="#F7F8F9"/>
<rect x="206" y="10" width="26" height="21" rx="3" fill="#F7F8F9"/>
<rect x="242" y="10" width="26" height="21" rx="3" fill="#F7F8F9"/>
<rect x="278" y="10" width="26" height="21" rx="3" fill="#F7F8F9"/>
</svg>
