<?xml version="1.0" encoding="utf-8"?>
<!-- Generator: Adobe Illustrator 24.2.1, SVG Export Plug-In . SVG Version: 6.00 Build 0)  -->
<svg version="1.1" id="Layer_1" xmlns="http://www.w3.org/2000/svg" xmlns:xlink="http://www.w3.org/1999/xlink" x="0px" y="0px"
	 viewBox="0 0 276 245" style="enable-background:new 0 0 276 245;" xml:space="preserve">
<style type="text/css">
	.st0{fill:#FFFFFF;}
	.st1{fill:#1E79BF;}
	.st2{fill:#1CB682;}
	.st3{fill:#D3DBE1;}
	.st4{fill:#9AA5AD;}
</style>
<path class="st0" d="M4.5,0.5h267c2.2,0,4,1.8,4,4v236c0,2.2-1.8,4-4,4H4.5c-2.2,0-4-1.8-4-4V4.5C0.5,2.3,2.3,0.5,4.5,0.5z"/>
<path class="st1" d="M101.7,211l-2.3-5.9H92l-2.3,5.9h-2.2l7.3-18.6h1.8l7.3,18.6H101.7z M98.7,203.2l-2.2-5.8
	c-0.3-0.7-0.6-1.6-0.9-2.7c-0.2,0.8-0.5,1.7-0.8,2.7l-2.2,5.8H98.7z"/>
<path class="st1" d="M115.6,209.1L115.6,209.1c-1.1,1.4-2.5,2.1-4.5,2.1c-1.8,0-3.2-0.6-4.2-1.9c-1-1.2-1.5-3-1.5-5.3
	s0.5-4.1,1.5-5.3s2.4-1.9,4.2-1.9c1.9,0,3.3,0.7,4.3,2.1h0.2l-0.1-1l-0.1-1v-5.7h2.1V211h-1.7L115.6,209.1z M111.4,209.5
	c1.4,0,2.5-0.4,3.1-1.2s1-2,1-3.8v-0.4c0-2-0.3-3.4-1-4.2s-1.7-1.3-3.1-1.3c-1.2,0-2.2,0.5-2.8,1.4c-0.7,1-1,2.3-1,4.1s0.3,3.1,1,4
	C109.2,209,110.1,209.5,111.4,209.5z"/>
<path class="st1" d="M131.6,209.1L131.6,209.1c-1.1,1.4-2.5,2.1-4.5,2.1c-1.8,0-3.2-0.6-4.2-1.9c-1-1.2-1.5-3-1.5-5.3
	s0.5-4.1,1.5-5.3s2.4-1.9,4.2-1.9c1.9,0,3.3,0.7,4.3,2.1h0.2l-0.1-1l-0.1-1v-5.7h2.1V211h-1.7L131.6,209.1z M127.3,209.5
	c1.4,0,2.5-0.4,3.1-1.2s1-2,1-3.8v-0.4c0-2-0.3-3.4-1-4.2s-1.7-1.3-3.1-1.3c-1.2,0-2.2,0.5-2.8,1.4c-0.7,1-1,2.3-1,4.1s0.3,3.1,1,4
	C125.1,209,126.1,209.5,127.3,209.5z"/>
<path class="st1" d="M159.9,201.5c0,3.1-0.8,5.4-2.5,7s-4.1,2.4-7.2,2.4h-5.1v-18.6h5.7c2.9,0,5.1,0.8,6.7,2.4
	S159.9,198.7,159.9,201.5z M157.6,201.6c0-2.4-0.6-4.2-1.8-5.5c-1.2-1.2-3-1.8-5.4-1.8h-3.1v14.8h2.6c2.6,0,4.5-0.6,5.8-1.9
	C157,206,157.6,204.1,157.6,201.6z"/>
<path class="st1" d="M172.3,211l-0.4-2h-0.1c-0.7,0.9-1.4,1.5-2.1,1.8c-0.7,0.3-1.6,0.5-2.6,0.5c-1.4,0-2.5-0.4-3.2-1.1
	c-0.8-0.7-1.2-1.7-1.2-3c0-2.8,2.2-4.3,6.7-4.4l2.4-0.1v-0.9c0-1.1-0.2-1.9-0.7-2.4s-1.2-0.8-2.3-0.8c-1.2,0-2.5,0.4-3.9,1.1
	l-0.6-1.6c0.7-0.4,1.4-0.7,2.3-0.9c0.8-0.2,1.6-0.3,2.5-0.3c1.7,0,2.9,0.4,3.7,1.1s1.2,1.9,1.2,3.5v9.5L172.3,211L172.3,211z
	 M167.5,209.5c1.3,0,2.3-0.4,3.1-1.1s1.1-1.7,1.1-3v-1.3l-2.1,0.1c-1.7,0.1-2.9,0.3-3.6,0.8c-0.7,0.5-1.1,1.2-1.1,2.2
	c0,0.8,0.2,1.3,0.7,1.7C166,209.3,166.7,209.5,167.5,209.5z"/>
<path class="st1" d="M187.2,207.2c0,1.3-0.5,2.3-1.4,3s-2.3,1.1-4.1,1.1s-3.3-0.3-4.3-0.9v-2c0.7,0.3,1.4,0.6,2.2,0.8
	s1.5,0.3,2.2,0.3c1.1,0,1.9-0.2,2.5-0.5c0.6-0.4,0.9-0.9,0.9-1.6c0-0.5-0.2-1-0.7-1.4s-1.4-0.8-2.7-1.4c-1.3-0.5-2.2-0.9-2.8-1.3
	c-0.5-0.4-1-0.8-1.2-1.2s-0.4-1-0.4-1.6c0-1.1,0.5-2,1.4-2.7s2.2-1,3.8-1c1.5,0,3,0.3,4.4,0.9l-0.7,1.7c-1.4-0.6-2.7-0.9-3.8-0.9
	c-1,0-1.8,0.2-2.3,0.5s-0.8,0.7-0.8,1.3c0,0.4,0.1,0.7,0.3,1s0.5,0.5,0.9,0.7s1.2,0.6,2.4,1c1.7,0.6,2.8,1.2,3.3,1.8
	C186.9,205.5,187.2,206.3,187.2,207.2z"/>
<path class="st1" d="M200.1,211v-9c0-1.1-0.3-2-0.8-2.5c-0.5-0.6-1.3-0.8-2.4-0.8c-1.5,0-2.5,0.4-3.2,1.2s-1,2.1-1,3.9v7.3h-2.1
	v-19.8h2.1v6c0,0.7,0,1.3-0.1,1.8h0.1c0.4-0.7,1-1.2,1.8-1.6c0.8-0.4,1.6-0.6,2.6-0.6c1.7,0,3,0.4,3.8,1.2c0.9,0.8,1.3,2.1,1.3,3.9
	v9.1L200.1,211L200.1,211L200.1,211z"/>
<path class="st1" d="M208.6,211h-2.1v-19.8h2.1V211z"/>
<path class="st1" d="M219,211.3c-2.1,0-3.7-0.6-4.9-1.9c-1.2-1.3-1.8-3-1.8-5.2s0.6-4,1.7-5.3s2.6-2,4.5-2c1.7,0,3.1,0.6,4.1,1.7
	c1,1.1,1.5,2.7,1.5,4.5v1.3h-9.6c0,1.6,0.5,2.9,1.2,3.7c0.8,0.8,1.9,1.3,3.3,1.3c1.5,0,3-0.3,4.4-0.9v1.9c-0.7,0.3-1.4,0.6-2.1,0.7
	C220.7,211.2,219.9,211.3,219,211.3z M218.4,198.6c-1.1,0-2,0.4-2.7,1.1c-0.7,0.7-1.1,1.7-1.2,3h7.3c0-1.3-0.3-2.3-0.9-3.1
	C220.4,199,219.5,198.6,218.4,198.6z"/>
<path class="st1" d="M232.2,209.5c0.4,0,0.7,0,1.1-0.1c0.3-0.1,0.6-0.1,0.8-0.2v1.6c-0.2,0.1-0.6,0.2-1,0.3s-0.8,0.1-1.2,0.1
	c-2.7,0-4-1.4-4-4.3v-8.3h-2v-1l2-0.9l0.9-3h1.2v3.2h4v1.6h-4v8.2c0,0.8,0.2,1.5,0.6,1.9C231,209.3,231.5,209.5,232.2,209.5z"/>
<path id="Icon_awesome-plus-circle_1_" class="st2" d="M57.6,185.4c-8.7,0-15.8,7.1-15.8,15.8S48.9,217,57.6,217s15.8-7.1,15.8-15.8
	S66.4,185.4,57.6,185.4L57.6,185.4z M66.8,203c0,0.4-0.3,0.8-0.8,0.8h-5.9v5.9c0,0.4-0.3,0.8-0.8,0.8h-3.6c-0.4,0-0.8-0.3-0.8-0.8
	v-5.9H49c-0.4,0-0.8-0.3-0.8-0.8v-3.6c0-0.4,0.3-0.8,0.8-0.8h5.9v-5.9c0-0.4,0.3-0.8,0.8-0.8h3.6c0.4,0,0.8,0.3,0.8,0.8v5.9H66
	c0.4,0,0.8,0.3,0.8,0.8V203z"/>
<path class="st3" d="M272,1c1.7,0,3,1.3,3,3v237c0,1.7-1.3,3-3,3H4c-1.7,0-3-1.3-3-3V4c0-1.7,1.3-3,3-3H272 M272,0H4
	C1.8,0,0,1.8,0,4v237c0,2.2,1.8,4,4,4h268c2.2,0,4-1.8,4-4V4C276,1.8,274.2,0,272,0L272,0z"/>
<g id="Group_27_1_" transform="translate(-838 -142)">
	<g id="Group_22_1_" transform="translate(348.406 -135.841)">
		<g id="Group_21_1_" transform="translate(566 321)">
			<g id="Group_12_3_" transform="translate(0 0)">
				<g id="Group_16_1_" transform="translate(7.123 6.826)">
					<circle id="Ellipse_4_3_" class="st4" cx="23.7" cy="3" r="3"/>
					<circle id="Ellipse_6_3_" class="st4" cx="15.4" cy="3" r="3"/>
					<circle id="Ellipse_7_3_" class="st4" cx="7" cy="3" r="3"/>
				</g>
				<path class="st4" d="M113.9-0.3H9.3c-3,0-5.5,2.5-5.5,5.5v96.5c0,3,2.5,5.5,5.5,5.5H114c3,0,5.5-2.5,5.5-5.5V5.2
					C119.4,2.2,117-0.3,113.9-0.3z M9.3,2.7H114c1.4,0,2.5,1.1,2.5,2.5V17H6.8V5.2C6.8,3.8,7.9,2.7,9.3,2.7z M113.9,104.2H9.3
					c-1.4,0-2.5-1.1-2.5-2.5V19.1h109.7v82.6C116.4,103,115.3,104.2,113.9,104.2z"/>
			</g>
			<g>
				<path class="st4" d="M91.3,42.2l8.5,11.7c3.4-2.8,5.6-7,5.9-11.7H91.3z"/>
				<path class="st4" d="M90.4,40.2h15.3c-0.5-8.3-7.1-14.9-15.4-15.3L90.4,40.2z"/>
				<path class="st4" d="M88.6,41.8c-0.1-0.2-0.2-0.4-0.2-0.6l-0.1-16.4c-8.6,0.5-15.4,7.7-15.4,16.4c0,9.1,7.4,16.4,16.4,16.4
					c3.3,0,6.3-1,8.8-2.6L88.6,41.8z"/>
			</g>
		</g>
		<g id="Group_24_1_" transform="translate(571.594 326.52)">
			<path id="Rectangle_33_1_" class="st4" d="M48.5,19.3h5c0.6,0,1,0.4,1,1v31c0,0.6-0.4,1-1,1h-5c-0.6,0-1-0.4-1-1v-31
				C47.5,19.8,48,19.3,48.5,19.3z"/>
			<path id="Rectangle_34_1_" class="st4" d="M39.2,23.3h5c0.6,0,1,0.4,1,1v27c0,0.6-0.4,1-1,1h-5c-0.6,0-1-0.4-1-1v-27
				C38.2,23.8,38.6,23.3,39.2,23.3z"/>
			<path id="Rectangle_36_1_" class="st4" d="M29.8,28.3h5c0.6,0,1,0.4,1,1v22c0,0.6-0.4,1-1,1h-5c-0.6,0-1-0.4-1-1v-22
				C28.8,28.8,29.3,28.3,29.8,28.3z"/>
			<path id="Rectangle_37_1_" class="st4" d="M20.4,35.3h5c0.6,0,1,0.4,1,1v15c0,0.6-0.4,1-1,1h-5c-0.6,0-1-0.4-1-1v-15
				C19.4,35.8,19.9,35.3,20.4,35.3z"/>
			<path id="Rectangle_38_1_" class="st4" d="M11.1,41.3h5c0.6,0,1,0.4,1,1v9c0,0.6-0.4,1-1,1h-5c-0.6,0-1-0.4-1-1v-9
				C10.1,41.8,10.5,41.3,11.1,41.3z"/>
		</g>
		<path class="st4" d="M618.8,415.2h-36.1v-3.9l9.6-6.7l6.1,2.3l9.9-6.1l9.7,3.7c0.3,0.1,0.5,0,0.6-0.3s0-0.5-0.3-0.6l-10.2-3.9
			l-9.9,6.1l-6.2-2.3l-9.4,6.6v-20.2c0-0.6-0.4-1-1-1s-1,0.4-1,1v26.3c0,0.6,0.4,1,1,1h37.1c0.6,0,1-0.4,1-1
			S619.3,415.2,618.8,415.2z"/>
	</g>
	<g id="Group_26_1_">
		<path class="st4" d="M1018.6,255.5h-29c-0.6,0-1-0.4-1-1s0.4-1,1-1h29c0.6,0,1,0.4,1,1S1019.1,255.5,1018.6,255.5z"/>
		<path class="st4" d="M1018.6,261.3h-29c-0.6,0-1-0.4-1-1s0.4-1,1-1h29c0.6,0,1,0.4,1,1S1019.1,261.3,1018.6,261.3z"/>
		<path class="st4" d="M1018.6,267.1h-29c-0.6,0-1-0.4-1-1s0.4-1,1-1h29c0.6,0,1,0.4,1,1S1019.1,267.1,1018.6,267.1z"/>
		<path class="st4" d="M1018.6,272.9h-29c-0.6,0-1-0.4-1-1s0.4-1,1-1h29c0.6,0,1,0.4,1,1S1019.1,272.9,1018.6,272.9z"/>
		<path class="st4" d="M1009.6,278.7h-20c-0.6,0-1-0.4-1-1s0.4-1,1-1h20c0.6,0,1,0.4,1,1S1010.1,278.7,1009.6,278.7z"/>
	</g>
</g>
</svg>
