<?xml version="1.0" encoding="utf-8"?>
<!-- Generator: Adobe Illustrator 25.0.0, SVG Export Plug-In . SVG Version: 6.00 Build 0)  -->
<svg version="1.1" id="Layer_1" xmlns="http://www.w3.org/2000/svg" xmlns:xlink="http://www.w3.org/1999/xlink" x="0px" y="0px"
	 viewBox="0 0 321 321" style="enable-background:new 0 0 321 321;" xml:space="preserve">
<style type="text/css">
	.st0{fill:#FFFFFF;}
	.st1{fill:#E5EAED;}
</style>
<path class="st0" d="M2.2,1h316c0.8,0,1.5,0.7,1.5,1.5v316c0,0.8-0.7,1.5-1.5,1.5H2.2c-0.8,0-1.5-0.7-1.5-1.5V2.5
	C0.8,1.7,1.4,1,2.2,1z"/>
<path class="st1" d="M318.2,0.5H2.2c-1.1,0-2,0.9-2,2v316c0,1.1,0.9,2,2,2h316c1.1,0,2-0.9,2-2V2.5C320.2,1.4,319.3,0.5,318.2,0.5z
	 M319.2,318.5c0,0.5-0.5,1-1,1H2.2c-0.5,0-1-0.5-1-1V2.5c0-0.5,0.5-1,1-1h316c0.5,0,1,0.5,1,1V318.5z"/>
<rect x="1.2" y="40.5" class="st1" width="319" height="1"/>
<path class="st1" d="M18.2,16.5h116c1.1,0,2,0.9,2,2v4c0,1.1-0.9,2-2,2h-116c-1.1,0-2-0.9-2-2v-4C16.2,17.4,17.1,16.5,18.2,16.5z"/>
<path class="st1" d="M77.2,280.5h12c1.1,0,2,0.9,2,2v12c0,1.1-0.9,2-2,2h-12c-1.1,0-2-0.9-2-2v-12C75.2,281.4,76.1,280.5,77.2,280.5
	z"/>
<path class="st1" d="M109.2,280.5h12c1.1,0,2,0.9,2,2v12c0,1.1-0.9,2-2,2h-12c-1.1,0-2-0.9-2-2v-12
	C107.2,281.4,108.1,280.5,109.2,280.5z"/>
<path class="st1" d="M145.2,280.5h12c1.1,0,2,0.9,2,2v12c0,1.1-0.9,2-2,2h-12c-1.1,0-2-0.9-2-2v-12
	C143.2,281.4,144.1,280.5,145.2,280.5z"/>
<path class="st1" d="M181.2,280.5h12c1.1,0,2,0.9,2,2v12c0,1.1-0.9,2-2,2h-12c-1.1,0-2-0.9-2-2v-12
	C179.2,281.4,180.1,280.5,181.2,280.5z"/>
<path class="st1" d="M217.2,280.5h12c1.1,0,2,0.9,2,2v12c0,1.1-0.9,2-2,2h-12c-1.1,0-2-0.9-2-2v-12
	C215.2,281.4,216.1,280.5,217.2,280.5z"/>
<path class="st1" d="M253.2,280.5h12c1.1,0,2,0.9,2,2v12c0,1.1-0.9,2-2,2h-12c-1.1,0-2-0.9-2-2v-12
	C251.2,281.4,252.1,280.5,253.2,280.5z"/>
<path class="st1" d="M32.2,138.5h20c1.1,0,2,0.9,2,2v4c0,1.1-0.9,2-2,2h-20c-1.1,0-2-0.9-2-2v-4C30.2,139.4,31.1,138.5,32.2,138.5z"
	/>
<path class="st1" d="M32.2,105.5h20c1.1,0,2,0.9,2,2v4c0,1.1-0.9,2-2,2h-20c-1.1,0-2-0.9-2-2v-4C30.2,106.4,31.1,105.5,32.2,105.5z"
	/>
<path class="st1" d="M32.2,72.5h20c1.1,0,2,0.9,2,2v4c0,1.1-0.9,2-2,2h-20c-1.1,0-2-0.9-2-2v-4C30.2,73.4,31.1,72.5,32.2,72.5z"/>
<path class="st1" d="M32.2,171.5h20c1.1,0,2,0.9,2,2v4c0,1.1-0.9,2-2,2h-20c-1.1,0-2-0.9-2-2v-4C30.2,172.4,31.1,171.5,32.2,171.5z"
	/>
<path class="st1" d="M32.2,204.5h20c1.1,0,2,0.9,2,2v4c0,1.1-0.9,2-2,2h-20c-1.1,0-2-0.9-2-2v-4C30.2,205.4,31.1,204.5,32.2,204.5z"
	/>
<path class="st1" d="M32.2,237.5h20c1.1,0,2,0.9,2,2v4c0,1.1-0.9,2-2,2h-20c-1.1,0-2-0.9-2-2v-4C30.2,238.4,31.1,237.5,32.2,237.5z"
	/>
<path class="st1" d="M32.2,270.5h20c1.1,0,2,0.9,2,2v4c0,1.1-0.9,2-2,2h-20c-1.1,0-2-0.9-2-2v-4C30.2,271.4,31.1,270.5,32.2,270.5z"
	/>
<path class="st1" d="M291.2,76.5v-1h-18v-8c0-1.1-0.9-2-2-2h-24c-1.1,0-2,0.9-2,2v8h-184v-17h-2V275h232v-2h-18v-31.5h18v-1h-18v-32
	h18v-1h-18v-32h18v-1h-18v-32h18v-1h-18v-32h18v-1h-18v-32H291.2z M61.2,142.5h148v32h-8v-20c0-1.1-0.9-2-2-2h-24c-1.1,0-2,0.9-2,2
	v20h-112V142.5z M165.2,241.5h8V273h-8V241.5z M137.2,273h-8v-31.5h8V273z M165.2,240.5v-32h8v32H165.2z M201.2,241.5h8V273h-8
	V241.5z M201.2,240.5v-32h8v32H201.2z M201.2,207.5v-32h8v32H201.2z M61.2,175.5h112v32h-8v-11c0-1.1-0.9-2-2-2h-24
	c-1.1,0-2,0.9-2,2v11h-76V175.5z M61.2,208.5h76v32h-8c0-1.1-0.9-2-2-2h-24c-1.1,0-2,0.9-2,2h-40V208.5z M61.2,241.5h40V273h-4
	v-13.5c0-1.1-0.9-2-2-2h-24c-1.1,0-2,0.9-2,2V273h-8V241.5z M245.2,273h-8v-31.5h8V273z M245.2,240.5h-8v-32h8V240.5z M245.2,207.5
	h-8v-32h8V207.5z M245.2,174.5h-8v-32h8V174.5z M245.2,141.5h-8v-19c0-1.1-0.9-2-2-2h-24c-1.1,0-2,0.9-2,2v19h-148v-32h184V141.5z
	 M245.2,108.5h-184v-32h184V108.5z"/>
</svg>
