<svg width="310" height="375" viewBox="0 0 310 375" fill="none" xmlns="http://www.w3.org/2000/svg">
<rect x="1" y="1" width="308" height="113" rx="3" fill="white" stroke="#F1F3F4" stroke-width="2"/>
<path d="M2 4C2 2.89543 2.89543 2 4 2H52V113H4C2.89543 113 2 112.105 2 111V4Z" fill="#F8FAFC"/>
<circle cx="27" cy="27" r="14" fill="#E5EAED"/>
<rect x="77" y="45" width="208" height="5" fill="#E5EAED"/>
<rect x="77" y="85" width="71.3175" height="5" fill="#E5EAED"/>
<rect x="77" y="25" width="54.0159" height="5" fill="#E5EAED"/>
<rect x="151.395" y="25" width="79.9683" height="5" fill="#E5EAED"/>
<rect x="77" y="65" width="156.095" height="5" fill="#E5EAED"/>
<rect x="1" y="131" width="308" height="113" rx="3" fill="white" stroke="#F1F3F4" stroke-width="2"/>
<path d="M2 134C2 132.895 2.89543 132 4 132H52V243H4C2.89543 243 2 242.105 2 241V134Z" fill="#F8FAFC"/>
<circle cx="27" cy="157" r="14" fill="#E5EAED"/>
<rect x="77" y="175" width="208" height="5" fill="#E5EAED"/>
<rect x="77" y="215" width="71.3175" height="5" fill="#E5EAED"/>
<rect x="77" y="155" width="54.0159" height="5" fill="#E5EAED"/>
<rect x="151.395" y="155" width="79.9683" height="5" fill="#E5EAED"/>
<rect x="77" y="195" width="156.095" height="5" fill="#E5EAED"/>
<rect x="1" y="261" width="308" height="113" rx="3" fill="white" stroke="#F1F3F4" stroke-width="2"/>
<path d="M2 264C2 262.895 2.89543 262 4 262H52V373H4C2.89543 373 2 372.105 2 371V264Z" fill="#F8FAFC"/>
<circle cx="27" cy="287" r="14" fill="#E5EAED"/>
<rect x="77" y="305" width="208" height="5" fill="#E5EAED"/>
<rect x="77" y="345" width="71.3175" height="5" fill="#E5EAED"/>
<rect x="77" y="285" width="54.0159" height="5" fill="#E5EAED"/>
<rect x="151.395" y="285" width="79.9683" height="5" fill="#E5EAED"/>
<rect x="77" y="325" width="156.095" height="5" fill="#E5EAED"/>
</svg>
