<?xml version="1.0" encoding="utf-8"?>
<!-- Generator: Adobe Illustrator 25.0.0, SVG Export Plug-In . SVG Version: 6.00 Build 0)  -->
<svg version="1.1" id="Layer_1" xmlns="http://www.w3.org/2000/svg" xmlns:xlink="http://www.w3.org/1999/xlink" x="0px" y="0px"
	 viewBox="0 0 321 321" style="enable-background:new 0 0 321 321;" xml:space="preserve">
<style type="text/css">
	.st0{fill:#FFFFFF;}
	.st1{fill:#E5EAED;}
	.st2{fill:#D9DDDF;}
</style>
<g>
	<path class="st0" d="M2.2,1h316c0.8,0,1.5,0.7,1.5,1.5v316c0,0.8-0.7,1.5-1.5,1.5H2.2c-0.8,0-1.5-0.7-1.5-1.5V2.5
		C0.8,1.7,1.4,1,2.2,1z"/>
	<path class="st1" d="M318.2,320.5H2.2c-1.1,0-2-0.9-2-2V2.5c0-1.1,0.9-2,2-2h316c1.1,0,2,0.9,2,2v316
		C320.2,319.6,319.4,320.5,318.2,320.5z M2.2,1.5c-0.6,0-1,0.4-1,1v316c0,0.6,0.4,1,1,1h316c0.6,0,1-0.4,1-1V2.5c0-0.6-0.4-1-1-1
		H2.2z"/>
</g>
<path class="st1" d="M18.2,15.5h46c1.1,0,2,0.9,2,2v4c0,1.1-0.9,2-2,2h-46c-1.1,0-2-0.9-2-2v-4C16.2,16.4,17.1,15.5,18.2,15.5z"/>
<path class="st1" d="M75.2,15.5h70c1.1,0,2,0.9,2,2v4c0,1.1-0.9,2-2,2h-70c-1.1,0-2-0.9-2-2v-4C73.2,16.4,74.1,15.5,75.2,15.5z"/>
<path class="st1" d="M41.2,49.5h94c1.1,0,2,0.9,2,2v4c0,1.1-0.9,2-2,2h-94c-1.1,0-2-0.9-2-2v-4C39.2,50.4,40.1,49.5,41.2,49.5z"/>
<path class="st1" d="M296.2,49.5h13c1.1,0,2,0.9,2,2v4c0,1.1-0.9,2-2,2h-13c-1.1,0-2-0.9-2-2v-4C294.2,50.4,295.1,49.5,296.2,49.5z"
	/>
<circle class="st1" cx="18.2" cy="53.5" r="10"/>
<path class="st1" d="M41.2,80.5h70c1.1,0,2,0.9,2,2v4c0,1.1-0.9,2-2,2h-70c-1.1,0-2-0.9-2-2v-4C39.2,81.4,40.1,80.5,41.2,80.5z"/>
<path class="st1" d="M296.2,80.5h13c1.1,0,2,0.9,2,2v4c0,1.1-0.9,2-2,2h-13c-1.1,0-2-0.9-2-2v-4C294.2,81.4,295.1,80.5,296.2,80.5z"
	/>
<circle class="st1" cx="18.2" cy="84.5" r="10"/>
<path class="st1" d="M41.2,111.5h40c1.1,0,2,0.9,2,2v4c0,1.1-0.9,2-2,2h-40c-1.1,0-2-0.9-2-2v-4C39.2,112.4,40.1,111.5,41.2,111.5z"
	/>
<path class="st1" d="M90.2,111.5h40c1.1,0,2,0.9,2,2v4c0,1.1-0.9,2-2,2h-40c-1.1,0-2-0.9-2-2v-4C88.2,112.4,89.1,111.5,90.2,111.5z"
	/>
<path class="st1" d="M296.2,111.5h13c1.1,0,2,0.9,2,2v4c0,1.1-0.9,2-2,2h-13c-1.1,0-2-0.9-2-2v-4
	C294.2,112.4,295.1,111.5,296.2,111.5z"/>
<circle class="st1" cx="18.2" cy="115.5" r="10"/>
<path class="st1" d="M41.2,142.5h79c1.1,0,2,0.9,2,2v4c0,1.1-0.9,2-2,2h-79c-1.1,0-2-0.9-2-2v-4C39.2,143.4,40.1,142.5,41.2,142.5z"
	/>
<path class="st1" d="M296.2,142.5h13c1.1,0,2,0.9,2,2v4c0,1.1-0.9,2-2,2h-13c-1.1,0-2-0.9-2-2v-4
	C294.2,143.4,295.1,142.5,296.2,142.5z"/>
<circle class="st1" cx="18.2" cy="146.5" r="10"/>
<path class="st1" d="M41.2,173.5h70c1.1,0,2,0.9,2,2v4c0,1.1-0.9,2-2,2h-70c-1.1,0-2-0.9-2-2v-4C39.2,174.4,40.1,173.5,41.2,173.5z"
	/>
<path class="st1" d="M296.2,173.5h13c1.1,0,2,0.9,2,2v4c0,1.1-0.9,2-2,2h-13c-1.1,0-2-0.9-2-2v-4
	C294.2,174.4,295.1,173.5,296.2,173.5z"/>
<circle class="st1" cx="18.2" cy="177.5" r="10"/>
<path class="st1" d="M41.2,204.5h98c1.1,0,2,0.9,2,2v4c0,1.1-0.9,2-2,2h-98c-1.1,0-2-0.9-2-2v-4C39.2,205.4,40.1,204.5,41.2,204.5z"
	/>
<path class="st1" d="M296.2,204.5h13c1.1,0,2,0.9,2,2v4c0,1.1-0.9,2-2,2h-13c-1.1,0-2-0.9-2-2v-4
	C294.2,205.4,295.1,204.5,296.2,204.5z"/>
<circle class="st1" cx="18.2" cy="208.5" r="10"/>
<path class="st1" d="M41.2,235.5h51c1.1,0,2,0.9,2,2v4c0,1.1-0.9,2-2,2h-51c-1.1,0-2-0.9-2-2v-4C39.2,236.4,40.1,235.5,41.2,235.5z"
	/>
<path class="st1" d="M296.2,235.5h13c1.1,0,2,0.9,2,2v4c0,1.1-0.9,2-2,2h-13c-1.1,0-2-0.9-2-2v-4
	C294.2,236.4,295.1,235.5,296.2,235.5z"/>
<circle class="st1" cx="18.2" cy="239.5" r="10"/>
<path class="st1" d="M41.2,266.5h83c1.1,0,2,0.9,2,2v4c0,1.1-0.9,2-2,2h-83c-1.1,0-2-0.9-2-2v-4C39.2,267.4,40.1,266.5,41.2,266.5z"
	/>
<path class="st1" d="M296.2,266.5h13c1.1,0,2,0.9,2,2v4c0,1.1-0.9,2-2,2h-13c-1.1,0-2-0.9-2-2v-4
	C294.2,267.4,295.1,266.5,296.2,266.5z"/>
<circle class="st1" cx="18.2" cy="270.5" r="10"/>
<path class="st1" d="M41.2,297.5h70c1.1,0,2,0.9,2,2v4c0,1.1-0.9,2-2,2h-70c-1.1,0-2-0.9-2-2v-4C39.2,298.4,40.1,297.5,41.2,297.5z"
	/>
<path class="st1" d="M296.2,297.5h13c1.1,0,2,0.9,2,2v4c0,1.1-0.9,2-2,2h-13c-1.1,0-2-0.9-2-2v-4
	C294.2,298.4,295.1,297.5,296.2,297.5z"/>
<circle class="st1" cx="18.2" cy="301.5" r="10"/>
<path class="st2" d="M1.2,37.5h-1v31v1v30v1v30v1v30v1v30v1v30v1v30v1v31h320v-31v-1v-30v-1v-30v-1v-30v-1v-30v-1v-30v-1v-30v-1v-30
	v-1H1.2z M319.2,285.5H1.2v-30h318V285.5z M319.2,254.5H1.2v-30h318V254.5z M319.2,223.5H1.2v-30h318V223.5z M319.2,192.5H1.2v-30
	h318V192.5z M319.2,161.5H1.2v-30h318V161.5z M319.2,130.5H1.2v-30h318V130.5z M319.2,99.5H1.2v-30h318V99.5z M319.2,68.5H1.2v-30
	h318V68.5z"/>
</svg>
