<?xml version="1.0" encoding="utf-8"?>
<!-- Generator: Adobe Illustrator 25.0.0, SVG Export Plug-In . SVG Version: 6.00 Build 0)  -->
<svg version="1.1" id="Layer_1" xmlns="http://www.w3.org/2000/svg" xmlns:xlink="http://www.w3.org/1999/xlink" x="0px" y="0px"
	 viewBox="0 0 321 321" style="enable-background:new 0 0 321 321;" xml:space="preserve">
<style type="text/css">
	.st0{fill:#FFFFFF;}
	.st1{fill:#E5EAED;}
	.st2{fill-rule:evenodd;clip-rule:evenodd;fill:#E5EAED;}
</style>
<g>
	<path class="st0" d="M2.2,1h316c0.8,0,1.5,0.7,1.5,1.5v316c0,0.8-0.7,1.5-1.5,1.5H2.2c-0.8,0-1.5-0.7-1.5-1.5V2.5
		C0.8,1.7,1.4,1,2.2,1z"/>
	<path class="st1" d="M318.2,320.5H2.2c-1.1,0-2-0.9-2-2V2.5c0-1.1,0.9-2,2-2h316c1.1,0,2,0.9,2,2v316
		C320.2,319.6,319.4,320.5,318.2,320.5z M2.2,1.5c-0.6,0-1,0.4-1,1v316c0,0.6,0.4,1,1,1h316c0.6,0,1-0.4,1-1V2.5c0-0.6-0.4-1-1-1
		H2.2z"/>
</g>
<rect x="1.2" y="37.5" class="st1" width="319" height="1"/>
<path class="st1" d="M18.2,15.5h110c1.1,0,2,0.9,2,2v3c0,1.1-0.9,2-2,2h-110c-1.1,0-2-0.9-2-2v-3C16.2,16.4,17.1,15.5,18.2,15.5z"/>
<path class="st1" d="M35,297.5h40.8c1.1,0,2,0.9,2,2v4c0,1.1-0.9,2-2,2H35c-1.1,0-2-0.9-2-2v-4C33,298.4,33.9,297.5,35,297.5z"/>
<path class="st1" d="M11.2,271.5h88.3c1.1,0,2,0.9,2,2v14c0,1.1-0.9,2-2,2H11.2c-1.1,0-2-0.9-2-2v-14
	C9.2,272.4,10.1,271.5,11.2,271.5z"/>
<path class="st1" d="M142.8,297.5h40.8c1.1,0,2,0.9,2,2v4c0,1.1-0.9,2-2,2h-40.8c-1.1,0-2-0.9-2-2v-4
	C140.8,298.4,141.7,297.5,142.8,297.5z"/>
<path class="st1" d="M119,271.5h88.3c1.1,0,2,0.9,2,2v14c0,1.1-0.9,2-2,2H119c-1.1,0-2-0.9-2-2v-14C117,272.4,117.9,271.5,119,271.5
	z"/>
<path class="st1" d="M240.7,297.5h40.8c1.1,0,2,0.9,2,2v4c0,1.1-0.9,2-2,2h-40.8c-1.1,0-2-0.9-2-2v-4
	C238.7,298.4,239.6,297.5,240.7,297.5z"/>
<path class="st1" d="M216.9,271.5h88.3c1.1,0,2,0.9,2,2v14c0,1.1-0.9,2-2,2h-88.3c-1.1,0-2-0.9-2-2v-14
	C214.9,272.4,215.8,271.5,216.9,271.5z"/>
<path class="st1" d="M64.2,60v-8.5c0-1.1-0.9-2-2-2h-44c-1.1,0-2,0.9-2,2v20c0,1.1,0.9,2,2,2h44c1.1,0,2-0.9,2-2V61h40.5v5.5h1V60
	H64.2z"/>
<path class="st1" d="M303.2,49.5h-44c-1.1,0-2,0.9-2,2V60h-41.5v6.5h1V61h40.5v10.5c0,1.1,0.9,2,2,2h44c1.1,0,2-0.9,2-2v-20
	C305.2,50.4,304.4,49.5,303.2,49.5z"/>
<path class="st1" d="M137.8,237.5h-1v6.5H64.2v-10.5c0-1.1-0.9-2-2-2h-44c-1.1,0-2,0.9-2,2v20c0,1.1,0.9,2,2,2h44c1.1,0,2-0.9,2-2
	V245h73.5V237.5z"/>
<path class="st2" d="M161.2,105.5c22.2,0.5,40,18.7,40,41c0,16.2-9.4,30.3-23.1,36.9l25.6,43c28.3-15.4,47.5-45.4,47.5-79.9
	c0-49.9-40.2-90.5-90-91V105.5z M202,227.4l-25.7-43.1c-4.9,2.1-10.3,3.3-16,3.3c-21,0-38.2-15.7-40.7-36H69.4
	c2.6,47.9,42.3,86,90.9,86C175.3,237.5,189.5,233.8,202,227.4z M119.2,146.5c0,1,0,2,0.1,3H69.3c0-1,0-2,0-3c0-49.9,40.2-90.5,90-91
	v50C137.1,106,119.2,124.2,119.2,146.5z"/>
</svg>
