<?xml version="1.0" encoding="utf-8"?>
<!-- Generator: Adobe Illustrator 23.0.4, SVG Export Plug-In . SVG Version: 6.00 Build 0)  -->
<svg version="1.1" id="Layer_1" xmlns="http://www.w3.org/2000/svg" xmlns:xlink="http://www.w3.org/1999/xlink" x="0px" y="0px"
	 viewBox="0 0 512 512" style="enable-background:new 0 0 512 512;" xml:space="preserve">
<style type="text/css">
	.st0{fill:#A2CC39;}
	.st1{fill:#529643;}
	.st2{fill:#F48020;}
	.st3{fill:#E25426;}
	.st4{fill:#009ADE;}
	.st5{fill:#037DB8;}
</style>
<g>
	<polygon class="st0" points="256,436.5 13,341.7 13,404.3 256,499 499,404.3 499,341.7 	"/>
	<polygon class="st1" points="256,246.9 13,341.7 256,436.5 499,341.7 	"/>
	<polygon class="st2" points="256,319.5 13,224.7 13,287.3 256,382.1 499,287.3 499,224.7 	"/>
	<polygon class="st3" points="256,129.9 13,224.7 256,319.5 499,224.7 	"/>
	<polygon class="st4" points="256,202.5 13,107.8 13,170.3 256,265.1 499,170.3 499,107.8 	"/>
	<polygon class="st5" points="256,13 13,107.7 256,202.5 499,107.7 	"/>
</g>
</svg>
