<?xml version="1.0" encoding="utf-8"?>
<!-- Generator: Adobe Illustrator 23.0.4, SVG Export Plug-In . SVG Version: 6.00 Build 0)  -->
<svg version="1.1" id="Layer_1" xmlns="http://www.w3.org/2000/svg" xmlns:xlink="http://www.w3.org/1999/xlink" x="0px" y="0px"
	 viewBox="0 0 184 34" style="enable-background:new 0 0 184 34;" xml:space="preserve">
<style type="text/css">
	.st0{fill:#A2CC39;}
	.st1{fill:#529643;}
	.st2{fill:#F48020;}
	.st3{fill:#E25426;}
	.st4{fill:#009ADE;}
	.st5{fill:#037DB8;}
	.st6{fill:#003764;}
</style>
<g>
	<g>
		<g>
			<polygon class="st0" points="17,29.6 0,23 0,27.4 17,34 34,27.4 34,23 			"/>
			<polygon class="st1" points="17,16.4 0,23 17,29.6 34,23 			"/>
			<polygon class="st2" points="17,21.4 0,14.8 0,19.2 17,25.8 34,19.2 34,14.8 			"/>
			<polygon class="st3" points="17,8.2 0,14.8 17,21.4 34,14.8 			"/>
			<polygon class="st4" points="17,13.3 0,6.6 0,11 17,17.6 34,11 34,6.6 			"/>
			<polygon class="st5" points="17,0 0,6.6 17,13.3 34,6.6 			"/>
		</g>
		<g>
			<path class="st6" d="M52.4,21.3c0-0.7-0.3-1.3-0.9-1.6c-0.6-0.4-1.6-0.7-2.9-1c-1.4-0.3-2.5-0.7-3.4-1.1c-2-1-3-2.4-3-4.2
				c0-1.5,0.7-2.8,2-3.9s3-1.6,5-1.6c2.1,0,3.9,0.5,5.2,1.6c1.3,1.1,2,2.4,2,4.1h-4c0-0.8-0.3-1.4-0.9-1.9c-0.6-0.5-1.3-0.8-2.3-0.8
				c-0.9,0-1.6,0.2-2.2,0.6c-0.6,0.4-0.8,1-0.8,1.6c0,0.6,0.3,1.1,0.8,1.4s1.6,0.7,3.2,1c1.6,0.3,2.8,0.8,3.7,1.2
				c0.9,0.5,1.6,1.1,2,1.7c0.4,0.7,0.7,1.5,0.7,2.5c0,1.6-0.7,2.9-2,3.9c-1.3,1-3.1,1.5-5.3,1.5c-1.5,0-2.8-0.3-3.9-0.8
				c-1.2-0.5-2-1.3-2.7-2.2c-0.6-0.9-1-1.9-1-3h3.9c0.1,1,0.4,1.7,1.1,2.2c0.7,0.5,1.5,0.8,2.6,0.8c1.1,0,1.9-0.2,2.4-0.6
				S52.4,22,52.4,21.3z"/>
			<path class="st6" d="M70.8,24.4c-1.2,1.4-2.9,2.1-5,2.1c-1.9,0-3.4-0.6-4.4-1.7c-1-1.1-1.5-2.8-1.5-4.9V8.2h4v11.6
				c0,2.3,0.9,3.4,2.8,3.4c2,0,3.3-0.7,4-2.1V8.2h4v18h-3.8L70.8,24.4z"/>
			<path class="st6" d="M78.1,17.1c0-2.8,0.7-5,2-6.7c1.3-1.7,3.1-2.5,5.2-2.5c2,0,3.7,0.7,4.8,2.1l0.2-1.8H94v17.4
				c0,2.4-0.7,4.2-2.2,5.6c-1.5,1.4-3.4,2-5.9,2c-1.3,0-2.6-0.3-3.9-0.8c-1.3-0.5-2.2-1.3-2.9-2.1l1.9-2.4c1.2,1.5,2.8,2.2,4.6,2.2
				c1.3,0,2.4-0.4,3.2-1.1c0.8-0.7,1.2-1.8,1.2-3.2v-1.2c-1.2,1.3-2.7,1.9-4.6,1.9c-2.1,0-3.8-0.8-5.2-2.5
				C78.8,22.4,78.1,20,78.1,17.1z M82.1,17.4c0,1.8,0.4,3.2,1.1,4.3c0.7,1,1.8,1.6,3.1,1.6c1.6,0,2.8-0.7,3.6-2.1v-7.9
				c-0.8-1.4-2-2-3.6-2c-1.3,0-2.4,0.5-3.1,1.6C82.5,13.8,82.1,15.4,82.1,17.4z"/>
			<path class="st6" d="M108.8,26.2c-0.2-0.3-0.3-0.9-0.5-1.7c-1.3,1.3-2.9,2-4.7,2c-1.8,0-3.3-0.5-4.4-1.5c-1.1-1-1.7-2.3-1.7-3.8
				c0-1.9,0.7-3.4,2.1-4.4s3.5-1.5,6.1-1.5h2.5V14c0-0.9-0.3-1.7-0.8-2.2c-0.5-0.6-1.3-0.8-2.4-0.8c-0.9,0-1.7,0.2-2.3,0.7
				c-0.6,0.5-0.9,1-0.9,1.8h-4c0-1,0.3-1.9,1-2.8c0.7-0.9,1.5-1.5,2.7-2c1.1-0.5,2.4-0.7,3.8-0.7c2.1,0,3.8,0.5,5,1.6
				s1.9,2.5,1.9,4.5V22c0,1.6,0.2,2.9,0.7,3.9v0.3H108.8z M104.4,23.3c0.8,0,1.5-0.2,2.2-0.6c0.7-0.4,1.2-0.9,1.6-1.6v-3.4h-2.2
				c-1.5,0-2.6,0.3-3.4,0.8c-0.8,0.5-1.1,1.3-1.1,2.2c0,0.8,0.3,1.4,0.8,1.9C102.8,23.1,103.5,23.3,104.4,23.3z"/>
			<path class="st6" d="M125.9,11.9c-0.5-0.1-1.1-0.1-1.6-0.1c-1.8,0-3.1,0.7-3.7,2.1v12.3h-4v-18h3.9l0.1,2c1-1.6,2.3-2.3,4.1-2.3
				c0.6,0,1.1,0.1,1.4,0.2L125.9,11.9z"/>
			<path class="st6" d="M135.6,24.9c1.4,0,2.5-0.4,3.5-1.2c0.9-0.8,1.4-1.8,1.5-3h1.9c-0.1,1.1-0.4,2.1-1,3
				c-0.6,0.9-1.5,1.6-2.5,2.1c-1,0.5-2.2,0.8-3.4,0.8c-2.4,0-4.2-0.8-5.6-2.5c-1.4-1.6-2.1-3.8-2.1-6.6v-0.6c0-1.8,0.3-3.3,0.9-4.7
				c0.6-1.4,1.5-2.4,2.7-3.2c1.2-0.7,2.5-1.1,4.1-1.1c2,0,3.6,0.6,4.9,1.8c1.3,1.2,2,2.7,2.1,4.6h-1.9c-0.1-1.4-0.6-2.5-1.5-3.4
				c-0.9-0.9-2.1-1.3-3.5-1.3c-1.8,0-3.2,0.6-4.2,1.9c-1,1.3-1.5,3.1-1.5,5.4v0.6c0,2.3,0.5,4.1,1.5,5.4
				C132.4,24.2,133.8,24.9,135.6,24.9z"/>
			<path class="st6" d="M154.8,9.9c-0.4-0.1-0.9-0.1-1.3-0.1c-1.2,0-2.3,0.3-3.1,1c-0.9,0.7-1.5,1.7-1.8,3v12.3h-2v-18h1.9l0,2.9
				c1.1-2.1,2.7-3.2,5.1-3.2c0.6,0,1,0.1,1.3,0.2L154.8,9.9z"/>
			<path class="st6" d="M159.7,8.2l0.1,2.9c0.7-1.1,1.5-1.9,2.5-2.4s2.1-0.8,3.3-0.8c2.8,0,4.6,1.2,5.4,3.5c0.6-1.1,1.5-2,2.6-2.6
				c1.1-0.6,2.3-0.9,3.6-0.9c3.9,0,5.8,2.1,5.9,6.3v12h-2V14.4c0-1.6-0.4-2.8-1-3.6c-0.7-0.8-1.8-1.2-3.3-1.2
				c-1.4,0-2.6,0.5-3.6,1.4s-1.5,2-1.6,3.3v11.9h-2v-12c0-1.5-0.4-2.7-1.1-3.4c-0.7-0.8-1.8-1.1-3.3-1.1c-1.3,0-2.3,0.4-3.2,1.1
				c-0.9,0.7-1.6,1.8-2,3.2v12.3h-2v-18H159.7z"/>
		</g>
	</g>
</g>
</svg>
