<?xml version="1.0" encoding="utf-8"?>
<!-- Generator: Adobe Illustrator 23.0.4, SVG Export Plug-In . SVG Version: 6.00 Build 0)  -->
<svg version="1.1" id="Layer_1" xmlns="http://www.w3.org/2000/svg" xmlns:xlink="http://www.w3.org/1999/xlink" x="0px" y="0px"
	 viewBox="0 0 249 28" style="enable-background:new 0 0 249 28;" xml:space="preserve">
<style type="text/css">
	.st0{fill:#B9BEC6;}
</style>
<g>
	<g>
		<path class="st0" d="M92.3,17.6c0-0.6-0.2-1-0.7-1.4c-0.5-0.3-1.3-0.6-2.4-0.8c-1.1-0.2-2.1-0.5-2.8-0.9c-1.7-0.8-2.5-2-2.5-3.5
			c0-1.3,0.5-2.3,1.6-3.2c1.1-0.9,2.4-1.3,4.1-1.3c1.8,0,3.2,0.4,4.3,1.3s1.6,2,1.6,3.4h-3.3c0-0.6-0.2-1.2-0.7-1.6
			C91,9.2,90.4,9,89.6,9c-0.7,0-1.3,0.2-1.8,0.5c-0.5,0.3-0.7,0.8-0.7,1.4c0,0.5,0.2,0.9,0.6,1.2c0.4,0.3,1.3,0.6,2.6,0.9
			c1.3,0.3,2.3,0.6,3.1,1c0.7,0.4,1.3,0.9,1.7,1.4c0.4,0.6,0.5,1.2,0.5,2c0,1.3-0.6,2.4-1.7,3.2c-1.1,0.8-2.5,1.2-4.3,1.2
			c-1.2,0-2.3-0.2-3.2-0.7c-0.9-0.4-1.7-1-2.2-1.8c-0.5-0.8-0.8-1.6-0.8-2.5h3.2c0,0.8,0.3,1.4,0.9,1.8c0.5,0.4,1.3,0.6,2.2,0.6
			c0.9,0,1.5-0.2,2-0.5C92.1,18.5,92.3,18.1,92.3,17.6z"/>
		<path class="st0" d="M107.5,20.1c-1,1.1-2.4,1.7-4.2,1.7c-1.6,0-2.8-0.5-3.6-1.4c-0.8-0.9-1.2-2.3-1.2-4.1V6.8h3.3v9.5
			c0,1.9,0.8,2.8,2.3,2.8c1.6,0,2.7-0.6,3.3-1.7V6.8h3.3v14.8h-3.1L107.5,20.1z"/>
		<path class="st0" d="M113.5,14.1c0-2.3,0.5-4.1,1.6-5.5c1.1-1.4,2.5-2.1,4.3-2.1c1.7,0,3,0.6,4,1.8l0.2-1.5h3v14.3
			c0,1.9-0.6,3.5-1.8,4.6c-1.2,1.1-2.8,1.7-4.9,1.7c-1.1,0-2.1-0.2-3.2-0.7c-1-0.5-1.8-1-2.4-1.8l1.6-2c1,1.2,2.3,1.8,3.8,1.8
			c1.1,0,2-0.3,2.6-0.9c0.6-0.6,1-1.5,1-2.6v-1c-1,1.1-2.2,1.6-3.8,1.6c-1.7,0-3.1-0.7-4.2-2.1C114,18.4,113.5,16.5,113.5,14.1z
			 M116.8,14.4c0,1.5,0.3,2.7,0.9,3.5c0.6,0.9,1.4,1.3,2.5,1.3c1.3,0,2.3-0.6,3-1.7v-6.5c-0.6-1.1-1.6-1.7-3-1.7
			c-1.1,0-1.9,0.4-2.5,1.3C117.1,11.4,116.8,12.7,116.8,14.4z"/>
		<path class="st0" d="M138.8,21.6c-0.1-0.3-0.3-0.7-0.4-1.4c-1.1,1.1-2.4,1.7-3.9,1.7c-1.5,0-2.7-0.4-3.6-1.3
			c-0.9-0.8-1.4-1.9-1.4-3.1c0-1.6,0.6-2.8,1.8-3.6c1.2-0.8,2.8-1.3,5-1.3h2v-1c0-0.8-0.2-1.4-0.6-1.8c-0.4-0.5-1.1-0.7-2-0.7
			c-0.8,0-1.4,0.2-1.9,0.6c-0.5,0.4-0.7,0.9-0.7,1.4h-3.3c0-0.8,0.3-1.6,0.8-2.3c0.5-0.7,1.3-1.3,2.2-1.7c0.9-0.4,2-0.6,3.1-0.6
			c1.7,0,3.1,0.4,4.1,1.3c1,0.9,1.6,2.1,1.6,3.7v6.7c0,1.3,0.2,2.4,0.6,3.2v0.2H138.8z M135.1,19.2c0.7,0,1.3-0.2,1.9-0.5
			c0.6-0.3,1-0.7,1.3-1.3v-2.8h-1.8c-1.2,0-2.2,0.2-2.8,0.6c-0.6,0.4-0.9,1-0.9,1.8c0,0.6,0.2,1.1,0.6,1.5
			C133.8,19,134.4,19.2,135.1,19.2z"/>
		<path class="st0" d="M152.8,9.8c-0.4-0.1-0.9-0.1-1.4-0.1c-1.5,0-2.5,0.6-3.1,1.8v10.1h-3.3V6.8h3.2l0.1,1.7
			c0.8-1.3,1.9-1.9,3.3-1.9c0.5,0,0.9,0.1,1.2,0.2L152.8,9.8z"/>
		<path class="st0" d="M160.8,20.5c1.1,0,2.1-0.3,2.9-1c0.8-0.6,1.2-1.5,1.3-2.5h1.6c0,0.9-0.3,1.7-0.8,2.5
			c-0.5,0.7-1.2,1.3-2.1,1.7c-0.9,0.4-1.8,0.6-2.8,0.6c-1.9,0-3.5-0.7-4.6-2c-1.1-1.3-1.7-3.2-1.7-5.4v-0.5c0-1.5,0.3-2.7,0.8-3.9
			c0.5-1.1,1.2-2,2.2-2.6c1-0.6,2.1-0.9,3.3-0.9c1.6,0,3,0.5,4,1.4c1.1,1,1.6,2.2,1.7,3.8h-1.6c-0.1-1.2-0.5-2.1-1.3-2.8
			c-0.8-0.7-1.7-1.1-2.9-1.1c-1.5,0-2.6,0.5-3.4,1.6c-0.8,1.1-1.2,2.6-1.2,4.5v0.5c0,1.9,0.4,3.4,1.2,4.4
			C158.2,19.9,159.3,20.5,160.8,20.5z"/>
		<path class="st0" d="M176.6,8.2c-0.3-0.1-0.7-0.1-1.1-0.1c-1,0-1.9,0.3-2.6,0.9c-0.7,0.6-1.2,1.4-1.5,2.5v10.2h-1.6V6.8h1.6l0,2.4
			c0.9-1.7,2.3-2.6,4.2-2.6c0.5,0,0.8,0.1,1.1,0.2L176.6,8.2z"/>
		<path class="st0" d="M180.7,6.8l0.1,2.4c0.5-0.9,1.2-1.6,2.1-2c0.8-0.4,1.7-0.7,2.7-0.7c2.3,0,3.8,1,4.4,2.9
			c0.5-0.9,1.2-1.6,2.1-2.1c0.9-0.5,1.9-0.7,2.9-0.7c3.2,0,4.8,1.7,4.9,5.2v9.9h-1.6v-9.7c0-1.3-0.3-2.3-0.9-2.9
			c-0.6-0.6-1.5-1-2.7-1c-1.2,0-2.2,0.4-3,1.1c-0.8,0.7-1.3,1.6-1.4,2.7v9.8h-1.6v-9.9c0-1.3-0.3-2.2-0.9-2.8
			c-0.6-0.6-1.5-0.9-2.7-0.9c-1,0-1.9,0.3-2.7,0.9c-0.7,0.6-1.3,1.5-1.6,2.6v10.1h-1.6V6.8H180.7z"/>
	</g>
	<g>
		<polygon class="st0" points="63.1,0 49.1,5.5 49.1,9.1 63.1,14.5 77.1,9.1 77.1,5.5 		"/>
		<polygon class="st0" points="63.1,16.4 50.8,11.6 49.1,12.2 49.1,15.8 63.1,21.3 77.1,15.8 77.1,12.2 75.5,11.6 		"/>
		<polygon class="st0" points="63.1,23.1 50.8,18.3 49.1,18.9 49.1,22.5 63.1,28 77.1,22.5 77.1,18.9 75.5,18.3 		"/>
	</g>
</g>
</svg>
